<svg width="20" height="20" viewBox="0 0 20 20" fill="none" xmlns="http://www.w3.org/2000/svg">
<g clip-path="url(#clip0)">
<path d="M10.0008 0C4.4781 0 0.0010004 4.47723 0.0010004 9.99973C0.0010004 15.5222 4.4781 20 10.0007 20C15.5234 20 20.0008 15.5224 20.0008 9.99973C20.0008 4.47703 15.5234 0 10.0008 0ZM10.6913 11.2225C10.6908 11.2488 10.6869 11.2751 10.6832 11.3014C10.6806 11.3211 10.6794 11.3413 10.6749 11.3607C10.6705 11.3809 10.6628 11.4009 10.6563 11.4211C10.6485 11.4455 10.6412 11.4698 10.631 11.4928C10.6291 11.4968 10.6284 11.5011 10.6267 11.5051C10.6116 11.5372 10.5941 11.5673 10.575 11.5959C10.5738 11.5976 10.5722 11.5993 10.571 11.6011C10.5492 11.6331 10.5243 11.6621 10.4982 11.6894C10.4909 11.6969 10.4835 11.7036 10.4759 11.7107C10.4529 11.7326 10.4287 11.7527 10.4029 11.771C10.395 11.7767 10.3874 11.7827 10.3791 11.7883C10.3461 11.8099 10.3115 11.8289 10.2755 11.8445C10.2677 11.8479 10.2595 11.85 10.2516 11.8531C10.2212 11.8649 10.1904 11.8746 10.1586 11.882C10.1472 11.8847 10.1359 11.8872 10.1243 11.8893C10.0835 11.8967 10.0422 11.9019 10.0003 11.9019C9.99187 11.9019 9.9832 11.8993 9.97473 11.8989C9.9346 11.8974 9.89487 11.8943 9.85667 11.8861C9.84473 11.8835 9.833 11.8783 9.82106 11.8751C9.78546 11.8654 9.75066 11.8547 9.71746 11.8398C9.71366 11.8379 9.70966 11.8375 9.70586 11.8358L5.87151 10.0272C5.52604 9.86433 5.37804 9.45213 5.5409 9.10666C5.70377 8.76139 6.11597 8.61319 6.46144 8.77606L9.3092 10.119V4.14996C9.3092 3.76803 9.61886 3.45836 10.0008 3.45836C10.3827 3.45836 10.6924 3.76803 10.6924 4.14996V11.2101H10.6925C10.6925 11.2142 10.6913 11.2183 10.6913 11.2225Z" fill="#5296C6"/>
</g>
<defs>
<clipPath id="clip0">
<rect width="20" height="20" fill="white"/>
</clipPath>
</defs>
</svg>
