<svg width="20" height="20" viewBox="0 0 20 20" fill="none" xmlns="http://www.w3.org/2000/svg">
<g clip-path="url(#clip0)">
<path d="M10.0008 0C4.47812 0 0.00100708 4.47724 0.00100708 9.9999C0.00100708 15.5224 4.47812 20 10.0008 20C15.5234 20 20.0009 15.5224 20.0009 9.9999C20.0009 4.47724 15.5234 0 10.0008 0ZM10.001 3.51244L15.9186 7.20247H4.08338L10.001 3.51244ZM15.9923 13.095H15.9917C15.9917 13.6869 15.512 14.1665 14.9202 14.1665H5.08172C4.48985 14.1665 4.01025 13.6868 4.01025 13.095V7.43727C4.01025 7.37467 4.01665 7.31381 4.02705 7.25401L9.68097 10.7796C9.6879 10.7839 9.6953 10.7868 9.70244 10.7908C9.7099 10.795 9.7175 10.799 9.7251 10.8028C9.76504 10.8234 9.80617 10.84 9.84824 10.8508C9.85257 10.852 9.8569 10.8526 9.86124 10.8536C9.90737 10.8644 9.95411 10.8712 10.0008 10.8712H10.0011C10.0014 10.8712 10.0018 10.8712 10.0018 10.8712C10.0484 10.8712 10.0952 10.8646 10.1413 10.8536C10.1456 10.8525 10.15 10.852 10.1543 10.8508C10.1963 10.84 10.2373 10.8234 10.2774 10.8028C10.285 10.799 10.2926 10.795 10.3001 10.7908C10.3072 10.7868 10.3146 10.7839 10.3216 10.7796L15.9755 7.25401C15.9859 7.31381 15.9923 7.37454 15.9923 7.43727V13.095Z" fill="#5296C6"/>
</g>
<defs>
<clipPath id="clip0">
<rect width="20" height="20" fill="white"/>
</clipPath>
</defs>
</svg>
