<svg width="40" height="40" viewBox="0 0 40 40" fill="none" xmlns="http://www.w3.org/2000/svg">
<circle cx="28" cy="20" r="12" fill="url(#paint0_linear)"/>
<circle cx="28" cy="20" r="12" fill="url(#paint1_linear)"/>
<circle cx="12" cy="20" r="12" transform="rotate(180 12 20)" fill="url(#paint2_linear)"/>
<circle cx="12" cy="20" r="12" transform="rotate(180 12 20)" fill="url(#paint3_linear)"/>
<circle cx="20" cy="28" r="12" transform="rotate(90 20 28)" fill="url(#paint4_linear)"/>
<circle cx="20" cy="28" r="12" transform="rotate(90 20 28)" fill="url(#paint5_linear)"/>
<circle cx="20" cy="12" r="12" transform="rotate(-90 20 12)" fill="url(#paint6_linear)"/>
<circle cx="20" cy="12" r="12" transform="rotate(-90 20 12)" fill="url(#paint7_linear)"/>
<defs>
<linearGradient id="paint0_linear" x1="28" y1="8" x2="28" y2="32" gradientUnits="userSpaceOnUse">
<stop stop-color="#5295C5"/>
<stop offset="1" stop-color="#5295C5" stop-opacity="0.05"/>
</linearGradient>
<linearGradient id="paint1_linear" x1="28" y1="8" x2="28" y2="32" gradientUnits="userSpaceOnUse">
<stop stop-color="#5295C5"/>
<stop offset="1" stop-color="#5295C5" stop-opacity="0.05"/>
</linearGradient>
<linearGradient id="paint2_linear" x1="12" y1="8" x2="12" y2="32" gradientUnits="userSpaceOnUse">
<stop stop-color="#5295C5"/>
<stop offset="1" stop-color="#5295C5" stop-opacity="0.05"/>
</linearGradient>
<linearGradient id="paint3_linear" x1="12" y1="8" x2="12" y2="32" gradientUnits="userSpaceOnUse">
<stop stop-color="#5295C5"/>
<stop offset="1" stop-color="#5295C5" stop-opacity="0.05"/>
</linearGradient>
<linearGradient id="paint4_linear" x1="20" y1="16" x2="20" y2="40" gradientUnits="userSpaceOnUse">
<stop stop-color="#5295C5"/>
<stop offset="1" stop-color="#5295C5" stop-opacity="0.05"/>
</linearGradient>
<linearGradient id="paint5_linear" x1="20" y1="16" x2="20" y2="40" gradientUnits="userSpaceOnUse">
<stop stop-color="#5295C5"/>
<stop offset="1" stop-color="#5295C5" stop-opacity="0.05"/>
</linearGradient>
<linearGradient id="paint6_linear" x1="20" y1="0" x2="20" y2="24" gradientUnits="userSpaceOnUse">
<stop stop-color="#5295C5"/>
<stop offset="1" stop-color="#5295C5" stop-opacity="0.05"/>
</linearGradient>
<linearGradient id="paint7_linear" x1="20" y1="0" x2="20" y2="24" gradientUnits="userSpaceOnUse">
<stop stop-color="#5295C5"/>
<stop offset="1" stop-color="#5295C5" stop-opacity="0.05"/>
</linearGradient>
</defs>
</svg>
