<svg width="20" height="20" viewBox="0 0 20 20" fill="none" xmlns="http://www.w3.org/2000/svg">
<g clip-path="url(#clip0)">
<path d="M10.001 0C4.47851 0 0.000976562 4.47755 0.000976562 10C0.000976562 15.5224 4.47851 20 10.001 20C15.5234 20 20.0009 15.5223 20.0009 10C20.0009 4.47755 15.5234 0 10.001 0ZM15.2816 14.5911L14.4809 15.392C14.338 15.5347 13.9194 15.6238 13.906 15.6238C11.373 15.6459 8.93408 14.6509 7.14213 12.8588C5.34527 11.0609 4.34917 8.61331 4.37592 6.07178C4.37592 6.07062 4.46759 5.66404 4.61042 5.52258L5.41105 4.72181C5.70404 4.42747 6.26684 4.29445 6.6611 4.42635L6.82952 4.48254C7.22263 4.61431 7.63535 5.04897 7.74397 5.44941L8.14672 6.92761C8.25533 7.32921 8.10884 7.90055 7.81594 8.19353L7.28132 8.72823C7.80621 10.6714 9.33086 12.1963 11.2743 12.7225L11.8087 12.1877C12.1031 11.8933 12.6742 11.7469 13.0749 11.8554L14.5529 12.2596C14.9535 12.3696 15.388 12.7798 15.5198 13.1728L15.5759 13.3436C15.7065 13.7368 15.5745 14.2994 15.2816 14.5911Z" fill="#5296C6"/>
</g>
<defs>
<clipPath id="clip0">
<rect width="20" height="20" fill="white"/>
</clipPath>
</defs>
</svg>
